<svg width="689" height="201" viewBox="0 0 689 201" fill="none" xmlns="http://www.w3.org/2000/svg">
<path d="M73.7279 102.28L108.483 137.036L177.988 67.524M32.7679 102.28L67.5236 137.036M137.035 67.524L110.592 94.2088" stroke="url(#paint0_linear_143_1561)" stroke-width="16" stroke-linecap="round" stroke-linejoin="round"/>
<path d="M335.888 55.96V70.424H312.08V145.304H294.16V70.424H270.352V55.96H335.888ZM380.451 146.456C373.624 146.456 367.48 144.963 362.019 141.976C356.558 138.904 352.248 134.595 349.091 129.048C346.019 123.501 344.483 117.101 344.483 109.848C344.483 102.595 346.062 96.1946 349.219 90.648C352.462 85.1013 356.856 80.8346 362.403 77.848C367.95 74.776 374.136 73.24 380.963 73.24C387.79 73.24 393.976 74.776 399.523 77.848C405.07 80.8346 409.422 85.1013 412.579 90.648C415.822 96.1946 417.443 102.595 417.443 109.848C417.443 117.101 415.779 123.501 412.451 129.048C409.208 134.595 404.771 138.904 399.139 141.976C393.592 144.963 387.363 146.456 380.451 146.456ZM380.451 130.84C383.694 130.84 386.723 130.072 389.539 128.536C392.44 126.915 394.744 124.525 396.451 121.368C398.158 118.211 399.011 114.371 399.011 109.848C399.011 103.107 397.219 97.944 393.635 94.36C390.136 90.6906 385.827 88.856 380.707 88.856C375.587 88.856 371.278 90.6906 367.779 94.36C364.366 97.944 362.659 103.107 362.659 109.848C362.659 116.589 364.323 121.795 367.651 125.464C371.064 129.048 375.331 130.84 380.451 130.84ZM425.98 109.592C425.98 102.424 427.388 96.0666 430.204 90.52C433.105 84.9733 437.031 80.7066 441.98 77.72C446.929 74.7333 452.433 73.24 458.492 73.24C463.1 73.24 467.495 74.264 471.676 76.312C475.857 78.2746 479.185 80.92 481.66 84.248V50.584H499.836V145.304H481.66V134.808C479.441 138.307 476.327 141.123 472.316 143.256C468.305 145.389 463.655 146.456 458.364 146.456C452.391 146.456 446.929 144.92 441.98 141.848C437.031 138.776 433.105 134.467 430.204 128.92C427.388 123.288 425.98 116.845 425.98 109.592ZM481.788 109.848C481.788 105.496 480.935 101.784 479.228 98.712C477.521 95.5546 475.217 93.1653 472.316 91.544C469.415 89.8373 466.3 88.984 462.972 88.984C459.644 88.984 456.572 89.7946 453.756 91.416C450.94 93.0373 448.636 95.4266 446.844 98.584C445.137 101.656 444.284 105.325 444.284 109.592C444.284 113.859 445.137 117.613 446.844 120.856C448.636 124.013 450.94 126.445 453.756 128.152C456.657 129.859 459.729 130.712 462.972 130.712C466.3 130.712 469.415 129.901 472.316 128.28C475.217 126.573 477.521 124.184 479.228 121.112C480.935 117.955 481.788 114.2 481.788 109.848ZM548.826 146.456C541.999 146.456 535.855 144.963 530.394 141.976C524.933 138.904 520.623 134.595 517.466 129.048C514.394 123.501 512.858 117.101 512.858 109.848C512.858 102.595 514.437 96.1946 517.594 90.648C520.837 85.1013 525.231 80.8346 530.778 77.848C536.325 74.776 542.511 73.24 549.338 73.24C556.165 73.24 562.351 74.776 567.898 77.848C573.445 80.8346 577.797 85.1013 580.954 90.648C584.197 96.1946 585.818 102.595 585.818 109.848C585.818 117.101 584.154 123.501 580.826 129.048C577.583 134.595 573.146 138.904 567.514 141.976C561.967 144.963 555.738 146.456 548.826 146.456ZM548.826 130.84C552.069 130.84 555.098 130.072 557.914 128.536C560.815 126.915 563.119 124.525 564.826 121.368C566.533 118.211 567.386 114.371 567.386 109.848C567.386 103.107 565.594 97.944 562.01 94.36C558.511 90.6906 554.202 88.856 549.082 88.856C543.962 88.856 539.653 90.6906 536.154 94.36C532.741 97.944 531.034 103.107 531.034 109.848C531.034 116.589 532.698 121.795 536.026 125.464C539.439 129.048 543.706 130.84 548.826 130.84ZM665.907 74.392V145.304H647.859V136.344C645.555 139.416 642.526 141.848 638.771 143.64C635.102 145.347 631.091 146.2 626.739 146.2C621.192 146.2 616.286 145.048 612.019 142.744C607.752 140.355 604.382 136.899 601.907 132.376C599.518 127.768 598.323 122.307 598.323 115.992V74.392H616.243V113.432C616.243 119.064 617.651 123.416 620.467 126.488C623.283 129.475 627.123 130.968 631.987 130.968C636.936 130.968 640.819 129.475 643.635 126.488C646.451 123.416 647.859 119.064 647.859 113.432V74.392H665.907Z" fill="url(#paint1_linear_143_1561)"/>
<defs>
<linearGradient id="paint0_linear_143_1561" x1="105.378" y1="67.524" x2="105.378" y2="137.036" gradientUnits="userSpaceOnUse">
<stop offset="0.305" stop-color="#4DA2F5"/>
<stop offset="1" stop-color="#4DA2F5" stop-opacity="0"/>
</linearGradient>
<linearGradient id="paint1_linear_143_1561" x1="477.2" y1="4.30396" x2="477.2" y2="200.912" gradientUnits="userSpaceOnUse">
<stop offset="0.305" stop-color="#4DA2F5"/>
<stop offset="1" stop-color="#4DA2F5" stop-opacity="0"/>
</linearGradient>
</defs>
</svg>
